# xmcd CD database file
#
# Track frame offsets:
#	182
#	17987
#	35932
#	51657
#	68770
#	86245
#	102107
#	119245
#	138740
#	157707
#	179257
#	197952
#	212920
#	229732
#	247295
#	265532
#
# Disc length: 3778 seconds
#
# Revision: 0
# Processed by: cddbd v1.5.1PL0 Copyright (c) Steve Scherf et al.
# Submitted via: CDex 1.51
#
DISCID=fa0ec010
DTITLE=Various Artist - Ooh... la la ka -- Salsa/Merengue [Paul Hartmann AG promo CD - 2001]
DYEAR=2001
DGENRE=Salsa
TTITLE0=MARCELA MORELO - Para Toda La Vida
TTITLE1=GISSELLE - Candela
TTITLE2=NATALIA OREIRO - Y Te Vas Conmigo
TTITLE3=CHOCOLATE - Woman del Callao
TTITLE4=GISSELLE - Dime Luna
TTITLE5=NATALIA OREIRO - Huracan
TTITLE6=MARCELA MORELO - Eclipse
TTITLE7=GISSELLE - Busco Un Amor
TTITLE8=AZUCAR MONERO - Olé
TTITLE9=DONATO Y ESTÉFANO - De Hombre A Mujer
TTITLE10=GISSELLE - Lo Quiero Olvidar
TTITLE11=NATALIA OREIRO - Nada Mas Que Hablar
TTITLE12=MARCELA MORELO - Lagrimas De Hielo
TTITLE13=GISSELLE - Cuanto Daria Yo
TTITLE14=NATALIA OREIRO - Cambio Dolor
TTITLE15=GISSELLE - No Me Enamoro
EXTD=YEAR: 2001
EXTT0=
EXTT1=
EXTT2=
EXTT3=
EXTT4=
EXTT5=
EXTT6=
EXTT7=
EXTT8=
EXTT9=
EXTT10=
EXTT11=
EXTT12=
EXTT13=
EXTT14=
EXTT15=
PLAYORDER=
